<?xml version="1.0" encoding="utf-8"?>
<!-- Generator: Adobe Illustrator 16.0.0, SVG Export Plug-In . SVG Version: 6.00 Build 0)  -->
<!DOCTYPE svg PUBLIC "-//W3C//DTD SVG 1.1//EN" "http://www.w3.org/Graphics/SVG/1.1/DTD/svg11.dtd">
<svg version="1.1" id="레이어_1" xmlns="http://www.w3.org/2000/svg" xmlns:xlink="http://www.w3.org/1999/xlink" x="0px"
	 y="0px" width="121.5px" height="22.833px" viewBox="0 0 121.5 22.833" enable-background="new 0 0 121.5 22.833"
	 xml:space="preserve">
<g>
	<path fill="#172751" d="M13.35,14.943h5.4v-1.752h-7.248v-2.544h17.976v2.544h-7.704v1.752h6.12v2.28
		c-0.016,0.592-0.076,1.152-0.18,1.68c-0.104,0.528-0.22,0.992-0.348,1.392c-0.08,0.224-0.16,0.444-0.24,0.66
		c-0.08,0.216-0.16,0.428-0.24,0.636h-3.192c0.272-0.528,0.48-1.032,0.624-1.512s0.248-0.904,0.312-1.272
		c0.032-0.208,0.056-0.412,0.072-0.612c0.016-0.2,0.024-0.396,0.024-0.588H13.35V14.943z M18.821,1.215h3.264v1.608h6.192v2.376
		h-4.896c0.256,0.304,0.524,0.564,0.804,0.78c0.28,0.216,0.6,0.416,0.96,0.6s0.768,0.348,1.224,0.492s0.979,0.296,1.572,0.456v2.136
		c-0.736-0.064-1.44-0.168-2.112-0.312s-1.316-0.344-1.932-0.6c-0.616-0.256-1.192-0.576-1.728-0.96
		c-0.536-0.384-1.036-0.856-1.5-1.416c-0.288,0.512-0.764,0.964-1.428,1.356c-0.665,0.392-1.376,0.732-2.136,1.02
		c-0.76,0.288-1.5,0.52-2.22,0.696c-0.72,0.176-1.289,0.296-1.704,0.36V7.503c0.352-0.08,0.724-0.172,1.116-0.276
		s0.788-0.244,1.188-0.42s0.804-0.392,1.212-0.648c0.408-0.256,0.804-0.576,1.188-0.96h-4.776V2.823h5.712V1.215z"/>
	<path fill="#172751" d="M38.693,5.895c-0.016,0.24-0.028,0.596-0.036,1.068c-0.008,0.472,0.016,1.004,0.072,1.596
		c0.056,0.592,0.152,1.212,0.288,1.86s0.344,1.268,0.624,1.86c0.279,0.592,0.644,1.12,1.092,1.584
		c0.448,0.464,1.008,0.808,1.68,1.032v2.808c-0.752-0.144-1.479-0.408-2.184-0.792c-0.592-0.32-1.192-0.768-1.8-1.344
		c-0.608-0.576-1.089-1.344-1.44-2.304c-0.288,0.896-0.724,1.628-1.308,2.196s-1.164,1.02-1.74,1.356
		c-0.672,0.4-1.4,0.696-2.184,0.888v-2.808c0.655-0.224,1.203-0.572,1.644-1.044c0.44-0.472,0.796-1,1.068-1.584
		c0.271-0.584,0.472-1.2,0.6-1.848s0.212-1.268,0.252-1.86s0.052-1.124,0.036-1.596c-0.016-0.472-0.032-0.828-0.048-1.068h-3.792
		V3.327h11.184v2.568H38.693z M43.829,1.503h2.929v20.208h-2.929v-9.984h-2.712V8.319h2.712V1.503z M51.053,1.503v20.208h-2.88
		V1.503H51.053z"/>
	<path fill="#172751" d="M70.876,3.327v2.784c0,1.088-0.172,2.148-0.516,3.18c-0.345,1.032-0.784,2.008-1.32,2.928
		c-0.536,0.92-1.132,1.78-1.788,2.58c-0.656,0.8-1.304,1.516-1.943,2.148c-0.641,0.632-1.229,1.168-1.765,1.608
		s-0.956,0.771-1.26,0.996v-4.032c0.784-0.688,1.488-1.42,2.112-2.196c0.624-0.776,1.16-1.56,1.607-2.352
		c0.448-0.792,0.796-1.572,1.045-2.34c0.247-0.768,0.396-1.503,0.443-2.208h-5.88V3.327H70.876z M73.205,1.503h2.832v20.208h-2.832
		v-9.432h-2.712V9.087h2.712V1.503z M80.38,1.503v20.208h-2.831V1.503H80.38z"/>
	<path fill="#172751" d="M90.005,7.167c0,0.752,0.063,1.448,0.191,2.088c0.128,0.64,0.336,1.24,0.624,1.8s0.672,1.084,1.152,1.572
		c0.479,0.488,1.071,0.956,1.776,1.404v3.24c-0.641-0.304-1.28-0.672-1.921-1.104c-0.544-0.368-1.132-0.832-1.764-1.392
		s-1.212-1.248-1.74-2.064c-0.464,0.8-1.02,1.484-1.668,2.052c-0.647,0.568-1.268,1.036-1.859,1.404
		c-0.688,0.432-1.4,0.8-2.137,1.104v-3.216c1.44-0.72,2.473-1.648,3.097-2.784c0.624-1.136,0.936-2.504,0.936-4.104V3.183h3.313
		V7.167z M99.413,21.711h-3.407V1.767h3.407V21.711z"/>
	<path fill="#172751" d="M102.292,2.319h11.424v2.472h-11.424V2.319z M112.516,5.871l-1.439,4.104h2.399v2.424h-11.184V9.975h2.64
		l-1.439-4.104h2.424l1.512,4.104h1.128l1.536-4.104H112.516z M118.588,21.255h-14.353v-6.648h3.024v3.792h11.328V21.255z
		 M118.132,7.143h2.352v2.688h-2.352v4.848h-3.024V1.503h3.024V7.143z"/>
</g>
<rect x="1.667" y="1.833" fill="#172751" width="3" height="20"/>
<rect x="2.833" y="18.167" fill="none" width="0.167" height="3.667"/>
</svg>
