<?xml version="1.0" encoding="utf-8"?>
<!-- Generator: Adobe Illustrator 16.0.0, SVG Export Plug-In . SVG Version: 6.00 Build 0)  -->
<!DOCTYPE svg PUBLIC "-//W3C//DTD SVG 1.1//EN" "http://www.w3.org/Graphics/SVG/1.1/DTD/svg11.dtd">
<svg version="1.1" id="레이어_1" xmlns="http://www.w3.org/2000/svg" xmlns:xlink="http://www.w3.org/1999/xlink" x="0px"
	 y="0px" width="121.5px" height="22.833px" viewBox="0 0 121.5 22.833" enable-background="new 0 0 121.5 22.833"
	 xml:space="preserve">
<g>
	<path fill="#172751" d="M29.837,16.791v2.736H11.501v-2.736h7.728v-2.568h3.072v2.568H29.837z M22.806,2.751
		c0.64,0,1.264,0.084,1.872,0.252c0.607,0.168,1.139,0.408,1.596,0.72c0.456,0.312,0.823,0.7,1.104,1.164
		c0.28,0.464,0.42,0.993,0.42,1.584v2.832c0,0.656-0.128,1.236-0.384,1.74s-0.6,0.928-1.032,1.272
		c-0.432,0.344-0.94,0.604-1.524,0.78c-0.584,0.176-1.196,0.264-1.836,0.264h-4.584c-0.656,0-1.276-0.088-1.86-0.264
		c-0.584-0.176-1.104-0.423-1.56-0.744c-0.456-0.32-0.816-0.716-1.08-1.188c-0.264-0.472-0.396-1.012-0.396-1.62
		c0-0.208-0.004-0.452-0.012-0.732c-0.008-0.28-0.012-0.564-0.012-0.852s0.004-0.572,0.012-0.852c0.008-0.28,0.028-0.524,0.06-0.732
		c0.064-0.528,0.244-1.012,0.54-1.452c0.296-0.44,0.664-0.82,1.104-1.14c0.44-0.32,0.94-0.572,1.5-0.756
		c0.56-0.184,1.128-0.276,1.704-0.276H22.806z M22.062,10.767c0.272,0,0.576-0.016,0.912-0.048c0.336-0.032,0.648-0.108,0.936-0.228
		c0.288-0.12,0.528-0.295,0.72-0.528c0.192-0.232,0.288-0.548,0.288-0.948V7.623c0-0.384-0.084-0.708-0.252-0.972
		s-0.388-0.48-0.66-0.648s-0.584-0.288-0.936-0.36c-0.352-0.072-0.704-0.108-1.056-0.108h-2.4c-0.32,0-0.632,0.02-0.936,0.06
		c-0.304,0.041-0.592,0.12-0.864,0.24c-0.272,0.12-0.512,0.3-0.72,0.54c-0.208,0.24-0.368,0.552-0.48,0.936
		c-0.08,0.24-0.12,0.544-0.12,0.912s0.04,0.68,0.12,0.936c0.144,0.464,0.412,0.848,0.804,1.152c0.392,0.304,1.012,0.456,1.86,0.456
		H22.062z"/>
	<path fill="#172751" d="M50.477,11.943h-18.72V9.447h18.72V11.943z M34.085,16.359h10.92v-1.104h-10.92v-1.92h14.184v5.208H37.085
		v0.984h11.184v2.184h-14.16L34.085,16.359z M34.133,8.247V1.575h2.76v3.84h11.232v2.832H34.133z"/>
	<path fill="#172751" d="M69.701,1.527v20.208h-3.6v-6.144c-0.592,0.528-1.24,0.976-1.944,1.344s-1.432,0.676-2.184,0.924
		c-0.752,0.249-1.512,0.444-2.28,0.588c-0.768,0.144-1.504,0.249-2.208,0.312c-1.696,0.176-3.393,0.192-5.088,0.048v-3.312
		c0.88,0.176,1.796,0.26,2.748,0.252c0.952-0.008,1.896-0.072,2.832-0.192c0.936-0.12,1.84-0.28,2.712-0.48
		c0.872-0.2,1.664-0.408,2.376-0.624c0.712-0.216,1.328-0.416,1.848-0.6c0.521-0.184,0.9-0.324,1.141-0.42V1.527H69.701z
		 M59.717,2.055c0.495,0,0.943,0.084,1.344,0.252c0.399,0.168,0.744,0.404,1.032,0.708s0.508,0.656,0.66,1.056
		c0.151,0.4,0.228,0.824,0.228,1.272v3.264c0,1.008-0.312,1.804-0.936,2.388s-1.488,0.876-2.593,0.876h-2.88
		c-0.432,0-0.848-0.072-1.248-0.216c-0.399-0.144-0.756-0.348-1.067-0.612c-0.313-0.264-0.561-0.58-0.744-0.948
		c-0.185-0.368-0.276-0.784-0.276-1.248V5.343c0-0.448,0.084-0.872,0.252-1.272c0.168-0.399,0.4-0.752,0.696-1.056
		s0.648-0.54,1.056-0.708c0.408-0.168,0.853-0.252,1.332-0.252H59.717z M60.077,5.967c0-0.384-0.132-0.708-0.396-0.972
		c-0.264-0.264-0.597-0.396-0.996-0.396h-1.032c-0.4,0-0.752,0.132-1.056,0.396c-0.305,0.264-0.456,0.588-0.456,0.972v1.992
		c0,0.4,0.151,0.732,0.456,0.996c0.304,0.264,0.655,0.396,1.056,0.396h1.032c0.399,0,0.732-0.132,0.996-0.396
		c0.264-0.264,0.396-0.596,0.396-0.996V5.967z"/>
	<path fill="#172751" d="M92.548,10.239c0.256-0.56,0.464-1.176,0.624-1.848c0.16-0.672,0.279-1.312,0.36-1.92
		c0.096-0.688,0.168-1.4,0.216-2.136H82.108V1.503h14.904v3.048c-0.032,0.512-0.104,1.056-0.216,1.632
		c-0.112,0.576-0.232,1.128-0.36,1.656c-0.128,0.528-0.256,1.008-0.384,1.44c-0.128,0.432-0.225,0.752-0.288,0.96h3.216v2.832H80.26
		v-2.832h7.416v-2.88h3.168v2.88H92.548z M94.18,14.727c0.864,0,1.552,0.232,2.064,0.696c0.512,0.464,0.768,1.088,0.768,1.872v1.992
		c0,0.688-0.248,1.26-0.744,1.716s-1.128,0.684-1.896,0.684h-9.576c-0.32-0.016-0.641-0.084-0.96-0.204
		c-0.32-0.12-0.608-0.28-0.864-0.48c-0.256-0.2-0.464-0.444-0.624-0.732s-0.24-0.608-0.24-0.96v-2.088
		c0-0.464,0.101-0.856,0.301-1.176c0.199-0.32,0.456-0.576,0.768-0.768c0.313-0.192,0.651-0.332,1.021-0.42
		c0.367-0.088,0.72-0.132,1.056-0.132H94.18z M86.524,17.319c-0.464,0-0.8,0.072-1.008,0.216c-0.208,0.144-0.312,0.304-0.312,0.48
		v0.648c0,0.176,0.039,0.308,0.12,0.396c0.079,0.087,0.184,0.152,0.312,0.192c0.128,0.04,0.268,0.064,0.42,0.072
		c0.152,0.008,0.308,0.012,0.468,0.012h6.601c0.304,0,0.552-0.056,0.744-0.168c0.191-0.112,0.288-0.28,0.288-0.504v-0.576
		c0-0.224-0.097-0.408-0.288-0.552c-0.192-0.144-0.448-0.216-0.769-0.216H86.524z"/>
	<path fill="#172751" d="M107.428,2.487c0.432,0,0.844,0.084,1.235,0.252c0.393,0.168,0.736,0.404,1.032,0.708
		c0.296,0.304,0.528,0.656,0.696,1.056s0.252,0.824,0.252,1.272v3.312c0,0.464-0.084,0.896-0.252,1.296
		c-0.168,0.4-0.4,0.752-0.696,1.056c-0.296,0.304-0.64,0.54-1.032,0.708c-0.392,0.168-0.804,0.252-1.235,0.252h-3.097
		c-0.432,0-0.848-0.084-1.248-0.252c-0.399-0.168-0.752-0.404-1.056-0.708c-0.304-0.304-0.548-0.656-0.731-1.056
		c-0.185-0.399-0.276-0.832-0.276-1.296V5.775c0-0.448,0.092-0.872,0.276-1.272c0.184-0.4,0.428-0.752,0.731-1.056
		c0.304-0.304,0.656-0.54,1.056-0.708c0.4-0.168,0.816-0.252,1.248-0.252H107.428z M107.812,6.447c0-0.416-0.132-0.756-0.396-1.02
		c-0.264-0.264-0.604-0.396-1.02-0.396h-1.032c-0.416,0-0.776,0.132-1.08,0.396c-0.304,0.264-0.456,0.604-0.456,1.02v1.992
		c0,0.4,0.152,0.736,0.456,1.008c0.304,0.272,0.664,0.408,1.08,0.408h1.032c0.416,0,0.756-0.136,1.02-0.408
		c0.265-0.271,0.396-0.608,0.396-1.008V6.447z M118.684,21.231h-14.208v-6.792h3v4.128h11.208V21.231z M115.156,1.551h3.36v12.96
		h-3.36v-3.312h-3.336v-2.64h3.336V6.783h-3.336v-2.64h3.336V1.551z"/>
</g>
<rect x="1.667" y="1.833" fill="#172751" width="3" height="20"/>
<rect x="2.833" y="18.167" fill="none" width="0.167" height="3.667"/>
</svg>
