<?xml version="1.0" encoding="utf-8"?>
<!-- Generator: Adobe Illustrator 16.0.0, SVG Export Plug-In . SVG Version: 6.00 Build 0)  -->
<!DOCTYPE svg PUBLIC "-//W3C//DTD SVG 1.1//EN" "http://www.w3.org/Graphics/SVG/1.1/DTD/svg11.dtd">
<svg version="1.1" id="레이어_1" xmlns="http://www.w3.org/2000/svg" xmlns:xlink="http://www.w3.org/1999/xlink" x="0px"
	 y="0px" width="190.769px" height="25.75px" viewBox="0 0 190.769 25.75" enable-background="new 0 0 190.769 25.75"
	 xml:space="preserve">
<g>
	<path fill="#172751" d="M1.92,1.656h9.384v3.24H5.496v16.032h6.24v3.192H1.92V1.656z M13.248,1.537h3.288v7.968h1.872V1.537h3.312
		V24.24h-3.312V12.696h-1.872V24.24h-3.288V1.537z"/>
	<path fill="#172751" d="M43.272,1.656v2.976H29.52v2.064h13.752v2.976h-7.009v2.04h8.616v2.832H24.24v-2.832h8.616v-2.04h-7.009
		V1.656H43.272z M39.599,16.032c0.592,0,1.148,0.104,1.668,0.312c0.521,0.208,0.973,0.496,1.356,0.864s0.688,0.8,0.912,1.296
		c0.224,0.496,0.336,1.04,0.336,1.632s-0.112,1.136-0.336,1.632c-0.225,0.496-0.528,0.928-0.912,1.296
		c-0.384,0.368-0.836,0.656-1.356,0.864c-0.52,0.208-1.076,0.312-1.668,0.312H29.52c-0.593,0-1.148-0.104-1.669-0.312
		c-0.52-0.208-0.972-0.496-1.355-0.864c-0.384-0.368-0.688-0.8-0.912-1.296c-0.225-0.496-0.336-1.041-0.336-1.632
		s0.111-1.136,0.336-1.632c0.224-0.496,0.528-0.928,0.912-1.296s0.836-0.656,1.355-0.864c0.521-0.208,1.076-0.312,1.669-0.312
		H39.599z M29.52,19.104c-0.288,0-0.532,0.1-0.732,0.3c-0.2,0.2-0.3,0.444-0.3,0.732c0,0.288,0.1,0.532,0.3,0.732
		c0.2,0.2,0.444,0.3,0.732,0.3h10.079c0.288,0,0.532-0.1,0.732-0.3c0.2-0.201,0.3-0.444,0.3-0.732c0-0.288-0.1-0.532-0.3-0.732
		c-0.2-0.2-0.444-0.3-0.732-0.3H29.52z"/>
	<path fill="#172751" d="M54.839,12.745l3.816,11.376h-3.36l-2.184-6.48l-2.256,6.48h-3.624l6.815-19.248h-6.408V1.656h9.96v3.216
		L54.839,12.745z M62.664,24.24h-3.096v-11.16h-2.736v-3.072h2.736V1.537h3.096V24.24z M67.536,24.24h-3.168V1.537h3.168V24.24z"/>
	<path fill="#172751" d="M89.208,10.032c0,0.608-0.097,1.188-0.288,1.74c-0.192,0.552-0.465,1.048-0.816,1.488
		c-0.352,0.44-0.764,0.816-1.235,1.128c-0.473,0.312-0.996,0.532-1.572,0.66v6.144h5.28V1.537h2.903v7.008h1.776V1.537h2.904V24.24
		h-2.904V11.809h-1.776V24.24h-15.72v-3.048h4.248v-6.12c-0.576-0.128-1.108-0.348-1.596-0.66c-0.488-0.312-0.908-0.688-1.261-1.128
		c-0.352-0.439-0.628-0.936-0.827-1.488c-0.2-0.552-0.301-1.14-0.301-1.764V6.696c0-0.72,0.133-1.392,0.396-2.016
		c0.264-0.624,0.628-1.172,1.092-1.644c0.464-0.472,1.012-0.84,1.645-1.104c0.632-0.264,1.308-0.396,2.027-0.396h0.864
		c0.72,0,1.396,0.132,2.028,0.396c0.632,0.264,1.18,0.632,1.644,1.104c0.464,0.472,0.828,1.02,1.092,1.644
		c0.265,0.624,0.396,1.296,0.396,2.016V10.032z M81.479,9.84c0,0.272,0.048,0.532,0.145,0.78c0.096,0.248,0.231,0.468,0.408,0.66
		c0.176,0.192,0.38,0.344,0.611,0.456c0.232,0.112,0.492,0.168,0.78,0.168h0.384c0.288,0,0.548-0.056,0.78-0.168
		c0.231-0.112,0.436-0.264,0.612-0.456c0.176-0.192,0.312-0.412,0.407-0.66c0.097-0.248,0.145-0.508,0.145-0.78V6.888
		c0-0.255-0.048-0.507-0.145-0.756c-0.096-0.248-0.231-0.468-0.407-0.66c-0.177-0.192-0.381-0.348-0.612-0.468
		c-0.232-0.12-0.492-0.18-0.78-0.18h-0.384c-0.288,0-0.548,0.06-0.78,0.18c-0.231,0.12-0.436,0.276-0.611,0.468
		c-0.177,0.192-0.313,0.413-0.408,0.66c-0.097,0.249-0.145,0.5-0.145,0.756V9.84z"/>
	<path fill="#172751" d="M117.551,1.656c0.607,0,1.18,0.096,1.716,0.288s1,0.456,1.392,0.792c0.393,0.336,0.704,0.729,0.937,1.176
		c0.231,0.448,0.348,0.928,0.348,1.44v5.112c0,0.512-0.116,0.992-0.348,1.44c-0.232,0.448-0.544,0.84-0.937,1.176
		c-0.392,0.336-0.855,0.6-1.392,0.792c-0.536,0.192-1.108,0.288-1.716,0.288h-3.816c-0.608,0-1.18-0.096-1.716-0.288
		c-0.536-0.192-1.004-0.456-1.404-0.792c-0.399-0.336-0.716-0.728-0.947-1.176c-0.232-0.448-0.349-0.928-0.349-1.44V5.353
		c0-0.512,0.116-0.992,0.349-1.44c0.231-0.448,0.548-0.84,0.947-1.176c0.4-0.336,0.868-0.6,1.404-0.792s1.107-0.288,1.716-0.288
		H117.551z M113.759,21.336h10.896v-19.8h3.216v5.832h2.448v3.264h-2.448v13.584h-17.52v-7.224h3.408V21.336z M118.535,6.528
		c0-0.543-0.172-0.968-0.516-1.272c-0.345-0.304-0.82-0.456-1.428-0.456h-1.896c-0.608,0-1.084,0.152-1.428,0.456
		c-0.345,0.304-0.516,0.729-0.516,1.272v2.76c0,0.56,0.171,0.988,0.516,1.284c0.344,0.296,0.819,0.444,1.428,0.444h1.896
		c0.607,0,1.083-0.148,1.428-0.444c0.344-0.296,0.516-0.724,0.516-1.284V6.528z"/>
	<path fill="#172751" d="M153.358,8.953h-2.448v6.624h-19.151v-2.88h5.352v-1.272c-0.512-0.128-0.996-0.32-1.452-0.576
		s-0.852-0.56-1.188-0.912s-0.604-0.752-0.804-1.2c-0.2-0.448-0.301-0.936-0.301-1.464V5.977c0-0.656,0.156-1.252,0.469-1.788
		c0.312-0.536,0.72-0.996,1.224-1.38c0.504-0.384,1.076-0.68,1.716-0.888c0.64-0.208,1.296-0.312,1.968-0.312
		c0.673,0,1.328,0.104,1.969,0.312c0.64,0.208,1.212,0.504,1.716,0.888c0.504,0.384,0.912,0.844,1.224,1.38
		c0.313,0.536,0.468,1.132,0.468,1.788v1.296c0,0.528-0.1,1.016-0.3,1.464c-0.2,0.448-0.468,0.848-0.804,1.2
		s-0.732,0.656-1.188,0.912s-0.939,0.448-1.451,0.576v1.272h7.151V1.537h3.384v4.416h2.448V8.953z M147.91,17.232l3.889,7.008
		h-3.336l-2.137-3.672l-1.896,3.672h-3.769l-1.896-3.672l-2.136,3.672h-3.336l3.888-7.008h3.168l2.184,4.224l2.208-4.224H147.91z
		 M136.486,6.625c0,0.592,0.208,1.088,0.624,1.488c0.416,0.4,0.96,0.6,1.632,0.6c0.673,0,1.216-0.2,1.633-0.6
		c0.415-0.399,0.624-0.896,0.624-1.488s-0.209-1.088-0.624-1.488c-0.417-0.399-0.96-0.6-1.633-0.6c-0.672,0-1.216,0.2-1.632,0.6
		C136.694,5.537,136.486,6.033,136.486,6.625z"/>
	<path fill="#172751" d="M161.302,1.537c0.815,0,1.584,0.148,2.304,0.444c0.72,0.296,1.348,0.704,1.884,1.224
		s0.96,1.132,1.272,1.836c0.312,0.704,0.468,1.456,0.468,2.256v2.232h3.984V1.537h3.384V24.24h-3.384V12.672h-3.984v5.808
		c0,0.8-0.156,1.552-0.468,2.256c-0.313,0.704-0.736,1.316-1.272,1.836s-1.164,0.928-1.884,1.224
		c-0.72,0.296-1.488,0.444-2.304,0.444c-0.816,0-1.584-0.148-2.304-0.444c-0.721-0.296-1.345-0.704-1.872-1.224
		c-0.528-0.52-0.948-1.132-1.261-1.836c-0.312-0.704-0.468-1.456-0.468-2.256V7.296c0-0.8,0.156-1.552,0.468-2.256
		c0.313-0.704,0.732-1.316,1.261-1.836c0.527-0.52,1.151-0.928,1.872-1.224C159.718,1.685,160.486,1.537,161.302,1.537z
		 M161.302,4.873c-0.336,0-0.656,0.064-0.96,0.192c-0.305,0.128-0.572,0.3-0.804,0.516c-0.232,0.216-0.412,0.472-0.54,0.768
		c-0.129,0.296-0.192,0.612-0.192,0.948V18.48c0,0.336,0.063,0.648,0.192,0.936c0.128,0.288,0.308,0.54,0.54,0.756
		c0.231,0.216,0.499,0.388,0.804,0.516c0.304,0.128,0.624,0.192,0.96,0.192c0.352,0,0.68-0.064,0.984-0.192
		c0.304-0.128,0.567-0.3,0.792-0.516c0.224-0.216,0.399-0.468,0.527-0.756s0.192-0.6,0.192-0.936V7.296
		c0-0.336-0.064-0.652-0.192-0.948s-0.304-0.552-0.527-0.768c-0.225-0.216-0.488-0.388-0.792-0.516
		C161.982,4.937,161.654,4.873,161.302,4.873z"/>
	<path fill="#172751" d="M177.55,7.584c0-0.64,0.052-1.3,0.156-1.98c0.104-0.68,0.3-1.3,0.588-1.86s0.684-1.024,1.188-1.392
		s1.164-0.552,1.98-0.552h4.2c0.672,0,1.26,0.132,1.764,0.396c0.504,0.264,0.924,0.608,1.26,1.032s0.596,0.904,0.78,1.44
		c0.184,0.536,0.3,1.076,0.348,1.62s0.028,1.068-0.06,1.572s-0.229,0.94-0.42,1.308l-3.36,6.168v2.688h-3.456v-3.048l3.192-5.568
		c0.176-0.304,0.3-0.696,0.372-1.176c0.071-0.48,0.071-0.944,0-1.392c-0.072-0.448-0.225-0.832-0.456-1.152
		c-0.232-0.32-0.557-0.48-0.973-0.48h-1.943c-0.353,0-0.637,0.056-0.853,0.168c-0.216,0.112-0.388,0.272-0.516,0.48
		s-0.216,0.46-0.264,0.756c-0.049,0.296-0.072,0.62-0.072,0.972H177.55z M186.046,23.544h-3.528v-3.504h3.528V23.544z"/>
</g>
</svg>
